<svg width="114" height="24" viewBox="0 0 114 24" fill="none" xmlns="http://www.w3.org/2000/svg">
<path d="M114 14C114 6.26801 107.732 0 100 0H11.2C5.01439 0 -1.52588e-05 5.01441 -1.52588e-05 11.2C-1.52588e-05 18.2692 5.73074 24 12.8 24H114V14Z" fill="#FF6A14"/>
<path d="M113.5 14C113.5 6.54416 107.456 0.5 100 0.5H11.2C5.29053 0.5 0.499985 5.29055 0.499985 11.2C0.499985 17.9931 6.00689 23.5 12.8 23.5H113.5V14Z" stroke="white" stroke-opacity="0.1"/>
<path d="M11.264 8.494V7.324H17.93V8.494H15.308V16H14.012V8.494H11.264ZM19.0653 16V7.084H20.3313V10.702C20.4313 10.538 20.5653 10.382 20.7333 10.234C20.9053 10.086 21.1133 9.966 21.3573 9.874C21.6053 9.778 21.8933 9.73 22.2213 9.73C22.6253 9.73 22.9893 9.806 23.3133 9.958C23.6413 10.106 23.9013 10.322 24.0933 10.606C24.2893 10.886 24.3873 11.22 24.3873 11.608V16H23.1033V11.842C23.1033 11.494 22.9833 11.226 22.7433 11.038C22.5033 10.85 22.1953 10.756 21.8193 10.756C21.5673 10.756 21.3273 10.8 21.0993 10.888C20.8753 10.972 20.6933 11.1 20.5533 11.272C20.4173 11.44 20.3493 11.652 20.3493 11.908V16H19.0653ZM27.7545 16.12C27.3545 16.12 26.9985 16.048 26.6865 15.904C26.3785 15.76 26.1365 15.552 25.9605 15.28C25.7845 15.008 25.6965 14.68 25.6965 14.296C25.6965 13.608 25.9405 13.094 26.4285 12.754C26.9165 12.414 27.6945 12.234 28.7625 12.214L29.7825 12.184V11.734C29.7825 11.378 29.6765 11.098 29.4645 10.894C29.2525 10.69 28.9265 10.59 28.4865 10.594C28.1545 10.594 27.8585 10.67 27.5985 10.822C27.3425 10.974 27.1745 11.224 27.0945 11.572H25.9785C26.0025 11.16 26.1205 10.814 26.3325 10.534C26.5485 10.25 26.8445 10.036 27.2205 9.892C27.5965 9.748 28.0385 9.676 28.5465 9.676C29.1105 9.676 29.5745 9.754 29.9385 9.91C30.3025 10.062 30.5725 10.286 30.7485 10.582C30.9285 10.878 31.0185 11.238 31.0185 11.662V16H29.9325L29.8305 14.86C29.5985 15.336 29.3045 15.666 28.9485 15.85C28.5965 16.03 28.1985 16.12 27.7545 16.12ZM28.1565 15.226C28.3525 15.226 28.5465 15.192 28.7385 15.124C28.9305 15.052 29.1045 14.956 29.2605 14.836C29.4165 14.712 29.5405 14.574 29.6325 14.422C29.7285 14.27 29.7785 14.114 29.7825 13.954V12.928L28.9425 12.946C28.5145 12.95 28.1505 12.994 27.8505 13.078C27.5545 13.162 27.3265 13.292 27.1665 13.468C27.0105 13.644 26.9325 13.878 26.9325 14.17C26.9325 14.502 27.0485 14.762 27.2805 14.95C27.5125 15.134 27.8045 15.226 28.1565 15.226ZM35.8556 10.72H34.4636L34.4696 14.422C34.4696 14.626 34.4896 14.776 34.5296 14.872C34.5736 14.964 34.6456 15.024 34.7456 15.052C34.8496 15.076 34.9896 15.088 35.1656 15.088H35.8916V15.922C35.8116 15.954 35.6916 15.982 35.5316 16.006C35.3756 16.03 35.1736 16.042 34.9256 16.042C34.4656 16.042 34.1076 15.98 33.8516 15.856C33.5996 15.732 33.4236 15.554 33.3236 15.322C33.2276 15.086 33.1796 14.802 33.1796 14.47V10.72H32.1716V9.796H33.2156L33.5336 7.972H34.4636V9.79H35.8556V10.72ZM37.1 10.306L37.772 8.776L37.232 8.74V7.324H38.72V8.566L37.652 10.306H37.1ZM41.7768 16.12C41.3448 16.12 40.9388 16.052 40.5588 15.916C40.1828 15.78 39.8668 15.566 39.6108 15.274C39.3588 14.982 39.2008 14.608 39.1368 14.152H40.2828C40.3348 14.388 40.4328 14.584 40.5768 14.74C40.7248 14.892 40.9008 15.006 41.1048 15.082C41.3128 15.154 41.5348 15.19 41.7708 15.19C42.1628 15.19 42.4788 15.12 42.7188 14.98C42.9628 14.836 43.0848 14.616 43.0848 14.32C43.0848 14.108 43.0188 13.938 42.8868 13.81C42.7588 13.682 42.5548 13.588 42.2748 13.528L41.0388 13.234C40.5268 13.114 40.1168 12.924 39.8088 12.664C39.5008 12.4 39.3448 12.032 39.3408 11.56C39.3408 11.196 39.4308 10.872 39.6108 10.588C39.7948 10.304 40.0668 10.082 40.4268 9.922C40.7868 9.758 41.2348 9.676 41.7708 9.676C42.4708 9.676 43.0328 9.832 43.4568 10.144C43.8808 10.456 44.1008 10.908 44.1168 11.5H43.0068C42.9668 11.216 42.8368 10.994 42.6168 10.834C42.4008 10.67 42.1148 10.588 41.7588 10.588C41.3908 10.588 41.0888 10.662 40.8528 10.81C40.6168 10.954 40.4988 11.176 40.4988 11.476C40.4988 11.68 40.5848 11.842 40.7568 11.962C40.9288 12.078 41.1868 12.174 41.5308 12.25L42.7068 12.544C43.0108 12.624 43.2608 12.73 43.4568 12.862C43.6528 12.99 43.8068 13.132 43.9188 13.288C44.0308 13.444 44.1088 13.606 44.1528 13.774C44.2008 13.942 44.2248 14.1 44.2248 14.248C44.2248 14.64 44.1248 14.976 43.9248 15.256C43.7288 15.532 43.4468 15.746 43.0788 15.898C42.7148 16.046 42.2808 16.12 41.7768 16.12ZM47.9188 16L51.0508 7.324H52.4668L55.5928 16H54.2968L53.4808 13.726H50.0548L49.2208 16H47.9188ZM50.3608 12.562H53.1508L51.7648 8.584L50.3608 12.562ZM64.476 9.796L62.55 16H61.374L60.03 11.644L58.74 16H57.582L55.638 9.796H56.808L58.164 14.314H58.248L59.574 9.796H60.528L61.896 14.302H61.98L63.288 9.796H64.476ZM66.3967 13.198C66.3967 13.57 66.4567 13.904 66.5767 14.2C66.7007 14.492 66.8867 14.724 67.1347 14.896C67.3827 15.064 67.6907 15.148 68.0587 15.148C68.4267 15.148 68.7447 15.064 69.0127 14.896C69.2847 14.728 69.4627 14.478 69.5467 14.146H70.7347C70.6627 14.57 70.4927 14.93 70.2247 15.226C69.9607 15.522 69.6407 15.746 69.2647 15.898C68.8887 16.046 68.4947 16.12 68.0827 16.12C67.4947 16.12 66.9767 15.994 66.5287 15.742C66.0807 15.486 65.7307 15.122 65.4787 14.65C65.2307 14.178 65.1067 13.616 65.1067 12.964C65.1067 12.32 65.2207 11.752 65.4487 11.26C65.6767 10.764 66.0067 10.376 66.4387 10.096C66.8707 9.816 67.3907 9.676 67.9987 9.676C68.5987 9.676 69.1027 9.804 69.5107 10.06C69.9227 10.316 70.2347 10.676 70.4467 11.14C70.6587 11.6 70.7647 12.144 70.7647 12.772V13.198H66.3967ZM66.3967 12.364H69.5407C69.5407 12.04 69.4847 11.746 69.3727 11.482C69.2607 11.214 69.0887 11.004 68.8567 10.852C68.6287 10.696 68.3407 10.618 67.9927 10.618C67.6367 10.618 67.3407 10.704 67.1047 10.876C66.8687 11.048 66.6907 11.268 66.5707 11.536C66.4547 11.804 66.3967 12.08 66.3967 12.364ZM74.437 16.12C74.005 16.12 73.599 16.052 73.219 15.916C72.843 15.78 72.527 15.566 72.271 15.274C72.019 14.982 71.861 14.608 71.797 14.152H72.943C72.995 14.388 73.093 14.584 73.237 14.74C73.385 14.892 73.561 15.006 73.765 15.082C73.973 15.154 74.195 15.19 74.431 15.19C74.823 15.19 75.139 15.12 75.379 14.98C75.623 14.836 75.745 14.616 75.745 14.32C75.745 14.108 75.679 13.938 75.547 13.81C75.419 13.682 75.215 13.588 74.935 13.528L73.699 13.234C73.187 13.114 72.777 12.924 72.469 12.664C72.161 12.4 72.005 12.032 72.001 11.56C72.001 11.196 72.091 10.872 72.271 10.588C72.455 10.304 72.727 10.082 73.087 9.922C73.447 9.758 73.895 9.676 74.431 9.676C75.131 9.676 75.693 9.832 76.117 10.144C76.541 10.456 76.761 10.908 76.777 11.5H75.667C75.627 11.216 75.497 10.994 75.277 10.834C75.061 10.67 74.775 10.588 74.419 10.588C74.051 10.588 73.749 10.662 73.513 10.81C73.277 10.954 73.159 11.176 73.159 11.476C73.159 11.68 73.245 11.842 73.417 11.962C73.589 12.078 73.847 12.174 74.191 12.25L75.367 12.544C75.671 12.624 75.921 12.73 76.117 12.862C76.313 12.99 76.467 13.132 76.579 13.288C76.691 13.444 76.769 13.606 76.813 13.774C76.861 13.942 76.885 14.1 76.885 14.248C76.885 14.64 76.785 14.976 76.585 15.256C76.389 15.532 76.107 15.746 75.739 15.898C75.375 16.046 74.941 16.12 74.437 16.12ZM80.8587 16.12C80.2788 16.12 79.7708 15.996 79.3348 15.748C78.9028 15.496 78.5668 15.132 78.3268 14.656C78.0908 14.18 77.9728 13.604 77.9728 12.928C77.9728 12.276 78.0848 11.706 78.3088 11.218C78.5368 10.73 78.8668 10.352 79.2988 10.084C79.7308 9.812 80.2528 9.676 80.8648 9.676C81.4488 9.676 81.9548 9.804 82.3828 10.06C82.8108 10.312 83.1428 10.682 83.3788 11.17C83.6148 11.654 83.7328 12.24 83.7328 12.928C83.7328 13.556 83.6208 14.11 83.3968 14.59C83.1768 15.07 82.8528 15.446 82.4248 15.718C82.0008 15.986 81.4788 16.12 80.8587 16.12ZM80.8648 15.13C81.2168 15.13 81.5108 15.038 81.7468 14.854C81.9868 14.666 82.1668 14.404 82.2868 14.068C82.4068 13.728 82.4668 13.336 82.4668 12.892C82.4668 12.48 82.4128 12.106 82.3048 11.77C82.2008 11.43 82.0308 11.16 81.7948 10.96C81.5588 10.76 81.2488 10.66 80.8648 10.66C80.5048 10.66 80.2048 10.752 79.9648 10.936C79.7248 11.116 79.5428 11.374 79.4188 11.71C79.2988 12.042 79.2388 12.436 79.2388 12.892C79.2388 13.296 79.2928 13.668 79.4008 14.008C79.5088 14.348 79.6828 14.62 79.9228 14.824C80.1628 15.028 80.4768 15.13 80.8648 15.13ZM85.1122 16V9.796H86.3602V10.69C86.5362 10.418 86.7762 10.182 87.0802 9.982C87.3842 9.778 87.7762 9.676 88.2562 9.676C88.4802 9.676 88.7062 9.714 88.9342 9.79C89.1662 9.866 89.3782 9.98 89.5702 10.132C89.7662 10.28 89.9202 10.464 90.0322 10.684C90.2282 10.388 90.4902 10.146 90.8182 9.958C91.1462 9.77 91.5142 9.676 91.9222 9.676C92.1422 9.676 92.3702 9.712 92.6062 9.784C92.8422 9.852 93.0602 9.97 93.2602 10.138C93.4642 10.302 93.6282 10.53 93.7522 10.822C93.8802 11.114 93.9442 11.484 93.9442 11.932V16H92.6542V12.07C92.6542 11.73 92.5962 11.464 92.4802 11.272C92.3682 11.08 92.2202 10.946 92.0362 10.87C91.8562 10.79 91.6642 10.75 91.4602 10.75C91.2762 10.75 91.0842 10.786 90.8842 10.858C90.6842 10.93 90.5142 11.05 90.3742 11.218C90.2342 11.386 90.1642 11.614 90.1642 11.902V16H88.8802V11.794C88.8802 11.566 88.8182 11.374 88.6942 11.218C88.5742 11.062 88.4222 10.946 88.2382 10.87C88.0582 10.79 87.8782 10.75 87.6982 10.75C87.4982 10.75 87.2982 10.79 87.0982 10.87C86.8982 10.95 86.7302 11.076 86.5942 11.248C86.4622 11.416 86.3962 11.634 86.3962 11.902V16H85.1122ZM96.5608 13.198C96.5608 13.57 96.6208 13.904 96.7408 14.2C96.8648 14.492 97.0508 14.724 97.2988 14.896C97.5468 15.064 97.8548 15.148 98.2228 15.148C98.5908 15.148 98.9088 15.064 99.1768 14.896C99.4488 14.728 99.6268 14.478 99.7108 14.146H100.899C100.827 14.57 100.657 14.93 100.389 15.226C100.125 15.522 99.8048 15.746 99.4288 15.898C99.0528 16.046 98.6588 16.12 98.2467 16.12C97.6588 16.12 97.1408 15.994 96.6928 15.742C96.2448 15.486 95.8948 15.122 95.6428 14.65C95.3948 14.178 95.2708 13.616 95.2708 12.964C95.2708 12.32 95.3848 11.752 95.6128 11.26C95.8408 10.764 96.1708 10.376 96.6028 10.096C97.0348 9.816 97.5548 9.676 98.1628 9.676C98.7628 9.676 99.2668 9.804 99.6748 10.06C100.087 10.316 100.399 10.676 100.611 11.14C100.823 11.6 100.929 12.144 100.929 12.772V13.198H96.5608ZM96.5608 12.364H99.7048C99.7048 12.04 99.6488 11.746 99.5368 11.482C99.4248 11.214 99.2528 11.004 99.0208 10.852C98.7928 10.696 98.5048 10.618 98.1568 10.618C97.8008 10.618 97.5048 10.704 97.2688 10.876C97.0328 11.048 96.8548 11.268 96.7348 11.536C96.6188 11.804 96.5608 12.08 96.5608 12.364Z" fill="white"/>
</svg>
