<svg width="95" height="24" viewBox="0 0 95 24" fill="none" xmlns="http://www.w3.org/2000/svg">
<path d="M0.851562 14C0.851562 6.26801 7.11958 0 14.8516 0H83.6516C89.8372 0 94.8516 5.01441 94.8516 11.2C94.8516 18.2692 89.1208 24 82.0516 24H0.851562V14Z" fill="#6B6097"/>
<path d="M1.35156 14C1.35156 6.54416 7.39572 0.5 14.8516 0.5H83.6516C89.561 0.5 94.3516 5.29055 94.3516 11.2C94.3516 17.9931 88.8447 23.5 82.0516 23.5H1.35156V14Z" stroke="white" stroke-opacity="0.1"/>
<path d="M21.6736 12.076H17.2336V16H15.9496V7.324H17.2336V10.96H21.6736V7.324H22.9576V16H21.6736V12.076ZM25.7873 13.198C25.7873 13.57 25.8473 13.904 25.9673 14.2C26.0913 14.492 26.2773 14.724 26.5253 14.896C26.7733 15.064 27.0813 15.148 27.4493 15.148C27.8173 15.148 28.1353 15.064 28.4033 14.896C28.6753 14.728 28.8533 14.478 28.9373 14.146H30.1253C30.0533 14.57 29.8833 14.93 29.6153 15.226C29.3513 15.522 29.0313 15.746 28.6553 15.898C28.2793 16.046 27.8853 16.12 27.4733 16.12C26.8853 16.12 26.3673 15.994 25.9193 15.742C25.4713 15.486 25.1213 15.122 24.8693 14.65C24.6213 14.178 24.4973 13.616 24.4973 12.964C24.4973 12.32 24.6113 11.752 24.8393 11.26C25.0673 10.764 25.3973 10.376 25.8293 10.096C26.2613 9.816 26.7813 9.676 27.3893 9.676C27.9893 9.676 28.4933 9.804 28.9013 10.06C29.3133 10.316 29.6253 10.676 29.8373 11.14C30.0493 11.6 30.1553 12.144 30.1553 12.772V13.198H25.7873ZM25.7873 12.364H28.9313C28.9313 12.04 28.8753 11.746 28.7633 11.482C28.6513 11.214 28.4793 11.004 28.2473 10.852C28.0193 10.696 27.7313 10.618 27.3833 10.618C27.0273 10.618 26.7313 10.704 26.4953 10.876C26.2593 11.048 26.0813 11.268 25.9613 11.536C25.8453 11.804 25.7873 12.08 25.7873 12.364ZM32.0741 17.98C31.6941 17.98 31.4301 17.952 31.2821 17.896C31.1381 17.84 31.0661 17.812 31.0661 17.812V16.984L31.6961 16.996C31.9361 17.008 32.1321 16.994 32.2841 16.954C32.4401 16.914 32.5621 16.858 32.6501 16.786C32.7421 16.718 32.8121 16.644 32.8601 16.564C32.9081 16.484 32.9441 16.41 32.9681 16.342L33.1601 15.82L30.7421 9.796H32.0261L33.7661 14.38L35.4941 9.796H36.7541L34.1681 16.348C33.9921 16.78 33.7981 17.114 33.5861 17.35C33.3781 17.586 33.1481 17.75 32.8961 17.842C32.6441 17.934 32.3701 17.98 32.0741 17.98ZM39.9124 8.494V7.324H46.5784V8.494H43.9564V16H42.6604V8.494H39.9124ZM47.7138 16V7.084H48.9798V10.702C49.0798 10.538 49.2138 10.382 49.3818 10.234C49.5538 10.086 49.7618 9.966 50.0058 9.874C50.2538 9.778 50.5418 9.73 50.8698 9.73C51.2738 9.73 51.6378 9.806 51.9618 9.958C52.2898 10.106 52.5498 10.322 52.7418 10.606C52.9378 10.886 53.0358 11.22 53.0358 11.608V16H51.7518V11.842C51.7518 11.494 51.6318 11.226 51.3918 11.038C51.1518 10.85 50.8438 10.756 50.4678 10.756C50.2158 10.756 49.9758 10.8 49.7478 10.888C49.5238 10.972 49.3418 11.1 49.2018 11.272C49.0658 11.44 48.9978 11.652 48.9978 11.908V16H47.7138ZM56.403 16.12C56.003 16.12 55.647 16.048 55.335 15.904C55.027 15.76 54.785 15.552 54.609 15.28C54.433 15.008 54.345 14.68 54.345 14.296C54.345 13.608 54.589 13.094 55.077 12.754C55.565 12.414 56.343 12.234 57.411 12.214L58.431 12.184V11.734C58.431 11.378 58.325 11.098 58.113 10.894C57.901 10.69 57.575 10.59 57.135 10.594C56.803 10.594 56.507 10.67 56.247 10.822C55.991 10.974 55.823 11.224 55.743 11.572H54.627C54.651 11.16 54.769 10.814 54.981 10.534C55.197 10.25 55.493 10.036 55.869 9.892C56.245 9.748 56.687 9.676 57.195 9.676C57.759 9.676 58.223 9.754 58.587 9.91C58.951 10.062 59.221 10.286 59.397 10.582C59.577 10.878 59.667 11.238 59.667 11.662V16H58.581L58.479 14.86C58.247 15.336 57.953 15.666 57.597 15.85C57.245 16.03 56.847 16.12 56.403 16.12ZM56.805 15.226C57.001 15.226 57.195 15.192 57.387 15.124C57.579 15.052 57.753 14.956 57.909 14.836C58.065 14.712 58.189 14.574 58.281 14.422C58.377 14.27 58.427 14.114 58.431 13.954V12.928L57.591 12.946C57.163 12.95 56.799 12.994 56.499 13.078C56.203 13.162 55.975 13.292 55.815 13.468C55.659 13.644 55.581 13.878 55.581 14.17C55.581 14.502 55.697 14.762 55.929 14.95C56.161 15.134 56.453 15.226 56.805 15.226ZM61.4716 16V9.796H62.7256V10.69C62.8256 10.522 62.9596 10.364 63.1276 10.216C63.2996 10.068 63.5096 9.948 63.7576 9.856C64.0096 9.764 64.2996 9.718 64.6276 9.718C65.0156 9.718 65.3736 9.796 65.7016 9.952C66.0336 10.104 66.2996 10.344 66.4996 10.672C66.6996 10.996 66.7996 11.416 66.7996 11.932V16H65.5156V12.07C65.5156 11.626 65.3956 11.296 65.1556 11.08C64.9196 10.864 64.6136 10.756 64.2376 10.756C63.9856 10.756 63.7456 10.798 63.5176 10.882C63.2896 10.966 63.1056 11.094 62.9656 11.266C62.8256 11.434 62.7556 11.646 62.7556 11.902V16H61.4716ZM74.0422 16H72.7102L70.8442 13.006L69.7282 14.164V16H68.4442V7.084H69.7282V12.754L72.4702 9.796H73.9102L71.6662 12.19L74.0422 16ZM77.3745 16.12C76.9425 16.12 76.5365 16.052 76.1565 15.916C75.7805 15.78 75.4645 15.566 75.2085 15.274C74.9565 14.982 74.7985 14.608 74.7345 14.152H75.8805C75.9325 14.388 76.0305 14.584 76.1745 14.74C76.3225 14.892 76.4985 15.006 76.7025 15.082C76.9105 15.154 77.1325 15.19 77.3685 15.19C77.7605 15.19 78.0765 15.12 78.3165 14.98C78.5605 14.836 78.6825 14.616 78.6825 14.32C78.6825 14.108 78.6165 13.938 78.4845 13.81C78.3565 13.682 78.1525 13.588 77.8725 13.528L76.6365 13.234C76.1245 13.114 75.7145 12.924 75.4065 12.664C75.0985 12.4 74.9425 12.032 74.9385 11.56C74.9385 11.196 75.0285 10.872 75.2085 10.588C75.3925 10.304 75.6645 10.082 76.0245 9.922C76.3845 9.758 76.8325 9.676 77.3685 9.676C78.0685 9.676 78.6305 9.832 79.0545 10.144C79.4785 10.456 79.6985 10.908 79.7145 11.5H78.6045C78.5645 11.216 78.4345 10.994 78.2145 10.834C77.9985 10.67 77.7125 10.588 77.3565 10.588C76.9885 10.588 76.6865 10.662 76.4505 10.81C76.2145 10.954 76.0965 11.176 76.0965 11.476C76.0965 11.68 76.1825 11.842 76.3545 11.962C76.5265 12.078 76.7845 12.174 77.1285 12.25L78.3045 12.544C78.6085 12.624 78.8585 12.73 79.0545 12.862C79.2505 12.99 79.4045 13.132 79.5165 13.288C79.6285 13.444 79.7065 13.606 79.7505 13.774C79.7985 13.942 79.8225 14.1 79.8225 14.248C79.8225 14.64 79.7225 14.976 79.5225 15.256C79.3265 15.532 79.0445 15.746 78.6765 15.898C78.3125 16.046 77.8785 16.12 77.3745 16.12Z" fill="white"/>
</svg>
