<svg width="64" height="24" viewBox="0 0 64 24" fill="none" xmlns="http://www.w3.org/2000/svg">
<path d="M0 14C0 6.26801 6.26801 0 14 0H52.8C58.9856 0 64 5.01441 64 11.2C64 18.2692 58.2693 24 51.2 24H0V14Z" fill="#014751"/>
<path d="M0.5 14C0.5 6.54416 6.54416 0.5 14 0.5H52.8C58.7095 0.5 63.5 5.29055 63.5 11.2C63.5 17.9931 57.9931 23.5 51.2 23.5H0.5V14Z" stroke="white" stroke-opacity="0.1"/>
<path d="M24.822 12.076H20.382V16H19.098V7.324H20.382V10.96H24.822V7.324H26.106V16H24.822V12.076ZM30.4837 16.12C29.9038 16.12 29.3958 15.996 28.9598 15.748C28.5278 15.496 28.1918 15.132 27.9518 14.656C27.7158 14.18 27.5978 13.604 27.5978 12.928C27.5978 12.276 27.7098 11.706 27.9338 11.218C28.1618 10.73 28.4918 10.352 28.9238 10.084C29.3558 9.812 29.8778 9.676 30.4898 9.676C31.0738 9.676 31.5798 9.804 32.0078 10.06C32.4358 10.312 32.7678 10.682 33.0038 11.17C33.2398 11.654 33.3578 12.24 33.3578 12.928C33.3578 13.556 33.2458 14.11 33.0218 14.59C32.8018 15.07 32.4778 15.446 32.0498 15.718C31.6258 15.986 31.1038 16.12 30.4837 16.12ZM30.4898 15.13C30.8418 15.13 31.1358 15.038 31.3718 14.854C31.6118 14.666 31.7918 14.404 31.9118 14.068C32.0318 13.728 32.0918 13.336 32.0918 12.892C32.0918 12.48 32.0378 12.106 31.9298 11.77C31.8258 11.43 31.6558 11.16 31.4198 10.96C31.1838 10.76 30.8738 10.66 30.4898 10.66C30.1298 10.66 29.8298 10.752 29.5898 10.936C29.3498 11.116 29.1678 11.374 29.0438 11.71C28.9238 12.042 28.8638 12.436 28.8638 12.892C28.8638 13.296 28.9178 13.668 29.0258 14.008C29.1338 14.348 29.3078 14.62 29.5478 14.824C29.7878 15.028 30.1018 15.13 30.4898 15.13ZM42.7885 9.796L40.8625 16H39.6865L38.3425 11.644L37.0525 16H35.8945L33.9505 9.796H35.1205L36.4765 14.314H36.5605L37.8865 9.796H38.8405L40.2085 14.302H40.2925L41.6005 9.796H42.7885ZM46.3931 14.47V16H44.9111V14.47H46.3931ZM42.9371 9.004C43.1931 8.432 43.5751 7.99 44.0831 7.678C44.5951 7.362 45.1831 7.204 45.8471 7.204C46.3951 7.204 46.8731 7.294 47.2811 7.474C47.6891 7.654 48.0051 7.9 48.2291 8.212C48.4531 8.524 48.5651 8.878 48.5651 9.274C48.5651 9.678 48.4851 10.026 48.3251 10.318C48.1651 10.61 47.9671 10.876 47.7311 11.116C47.4951 11.356 47.2591 11.596 47.0231 11.836C46.7871 12.072 46.5891 12.334 46.4291 12.622C46.2691 12.906 46.1891 13.244 46.1891 13.636H45.1151C45.1151 13.184 45.1871 12.794 45.3311 12.466C45.4751 12.134 45.6531 11.838 45.8651 11.578C46.0811 11.318 46.2951 11.074 46.5071 10.846C46.7191 10.618 46.8971 10.384 47.0411 10.144C47.1891 9.904 47.2631 9.634 47.2631 9.334C47.2631 8.966 47.1311 8.676 46.8671 8.464C46.6031 8.252 46.2611 8.146 45.8411 8.146C45.5931 8.146 45.3491 8.198 45.1091 8.302C44.8731 8.402 44.6611 8.54 44.4731 8.716C44.2891 8.892 44.1531 9.092 44.0651 9.316L42.9371 9.004Z" fill="#FFF9E3"/>
</svg>
