<svg width="114" height="24" viewBox="0 0 114 24" fill="none" xmlns="http://www.w3.org/2000/svg">
<path d="M114 14C114 6.26801 107.732 0 100 0H11.2C5.01439 0 -1.52588e-05 5.01441 -1.52588e-05 11.2C-1.52588e-05 18.2692 5.73074 24 12.8 24H114V14Z" fill="#0987FF"/>
<path d="M113.5 14C113.5 6.54416 107.456 0.5 100 0.5H11.2C5.29053 0.5 0.499985 5.29055 0.499985 11.2C0.499985 17.9931 6.00689 23.5 12.8 23.5H113.5V14Z" stroke="white" stroke-opacity="0.1"/>
<path d="M19.264 8.494V7.324H25.93V8.494H23.308V16H22.012V8.494H19.264ZM27.0653 16V7.084H28.3313V10.702C28.4313 10.538 28.5653 10.382 28.7333 10.234C28.9053 10.086 29.1133 9.966 29.3573 9.874C29.6053 9.778 29.8933 9.73 30.2213 9.73C30.6253 9.73 30.9893 9.806 31.3133 9.958C31.6413 10.106 31.9013 10.322 32.0933 10.606C32.2893 10.886 32.3873 11.22 32.3873 11.608V16H31.1033V11.842C31.1033 11.494 30.9833 11.226 30.7433 11.038C30.5033 10.85 30.1953 10.756 29.8193 10.756C29.5673 10.756 29.3273 10.8 29.0993 10.888C28.8753 10.972 28.6933 11.1 28.5533 11.272C28.4173 11.44 28.3493 11.652 28.3493 11.908V16H27.0653ZM35.7545 16.12C35.3545 16.12 34.9985 16.048 34.6865 15.904C34.3785 15.76 34.1365 15.552 33.9605 15.28C33.7845 15.008 33.6965 14.68 33.6965 14.296C33.6965 13.608 33.9405 13.094 34.4285 12.754C34.9165 12.414 35.6945 12.234 36.7625 12.214L37.7825 12.184V11.734C37.7825 11.378 37.6765 11.098 37.4645 10.894C37.2525 10.69 36.9265 10.59 36.4865 10.594C36.1545 10.594 35.8585 10.67 35.5985 10.822C35.3425 10.974 35.1745 11.224 35.0945 11.572H33.9785C34.0025 11.16 34.1205 10.814 34.3325 10.534C34.5485 10.25 34.8445 10.036 35.2205 9.892C35.5965 9.748 36.0385 9.676 36.5465 9.676C37.1105 9.676 37.5745 9.754 37.9385 9.91C38.3025 10.062 38.5725 10.286 38.7485 10.582C38.9285 10.878 39.0185 11.238 39.0185 11.662V16H37.9325L37.8305 14.86C37.5985 15.336 37.3045 15.666 36.9485 15.85C36.5965 16.03 36.1985 16.12 35.7545 16.12ZM36.1565 15.226C36.3525 15.226 36.5465 15.192 36.7385 15.124C36.9305 15.052 37.1045 14.956 37.2605 14.836C37.4165 14.712 37.5405 14.574 37.6325 14.422C37.7285 14.27 37.7785 14.114 37.7825 13.954V12.928L36.9425 12.946C36.5145 12.95 36.1505 12.994 35.8505 13.078C35.5545 13.162 35.3265 13.292 35.1665 13.468C35.0105 13.644 34.9325 13.878 34.9325 14.17C34.9325 14.502 35.0485 14.762 35.2805 14.95C35.5125 15.134 35.8045 15.226 36.1565 15.226ZM43.8556 10.72H42.4636L42.4696 14.422C42.4696 14.626 42.4896 14.776 42.5296 14.872C42.5736 14.964 42.6456 15.024 42.7456 15.052C42.8496 15.076 42.9896 15.088 43.1656 15.088H43.8916V15.922C43.8116 15.954 43.6916 15.982 43.5316 16.006C43.3756 16.03 43.1736 16.042 42.9256 16.042C42.4656 16.042 42.1076 15.98 41.8516 15.856C41.5996 15.732 41.4236 15.554 41.3236 15.322C41.2276 15.086 41.1796 14.802 41.1796 14.47V10.72H40.1716V9.796H41.2156L41.5336 7.972H42.4636V9.79H43.8556V10.72ZM45.1 10.306L45.772 8.776L45.232 8.74V7.324H46.72V8.566L45.652 10.306H45.1ZM49.7768 16.12C49.3448 16.12 48.9388 16.052 48.5588 15.916C48.1828 15.78 47.8668 15.566 47.6108 15.274C47.3588 14.982 47.2008 14.608 47.1368 14.152H48.2828C48.3348 14.388 48.4328 14.584 48.5768 14.74C48.7248 14.892 48.9008 15.006 49.1048 15.082C49.3128 15.154 49.5348 15.19 49.7708 15.19C50.1628 15.19 50.4788 15.12 50.7188 14.98C50.9628 14.836 51.0848 14.616 51.0848 14.32C51.0848 14.108 51.0188 13.938 50.8868 13.81C50.7588 13.682 50.5548 13.588 50.2748 13.528L49.0388 13.234C48.5268 13.114 48.1168 12.924 47.8088 12.664C47.5008 12.4 47.3448 12.032 47.3408 11.56C47.3408 11.196 47.4308 10.872 47.6108 10.588C47.7948 10.304 48.0668 10.082 48.4268 9.922C48.7868 9.758 49.2348 9.676 49.7708 9.676C50.4708 9.676 51.0328 9.832 51.4568 10.144C51.8808 10.456 52.1008 10.908 52.1168 11.5H51.0068C50.9668 11.216 50.8368 10.994 50.6168 10.834C50.4008 10.67 50.1148 10.588 49.7588 10.588C49.3908 10.588 49.0888 10.662 48.8528 10.81C48.6168 10.954 48.4988 11.176 48.4988 11.476C48.4988 11.68 48.5848 11.842 48.7568 11.962C48.9288 12.078 49.1868 12.174 49.5308 12.25L50.7068 12.544C51.0108 12.624 51.2608 12.73 51.4568 12.862C51.6528 12.99 51.8068 13.132 51.9188 13.288C52.0308 13.444 52.1088 13.606 52.1528 13.774C52.2008 13.942 52.2248 14.1 52.2248 14.248C52.2248 14.64 52.1248 14.976 51.9248 15.256C51.7288 15.532 51.4468 15.746 51.0788 15.898C50.7148 16.046 50.2808 16.12 49.7768 16.12ZM57.6948 9.796V16H56.4588V9.796H57.6948ZM57.7188 7.33V8.596H56.4288V7.33H57.7188ZM62.922 10.72H61.53L61.536 14.422C61.536 14.626 61.556 14.776 61.596 14.872C61.64 14.964 61.712 15.024 61.812 15.052C61.916 15.076 62.056 15.088 62.232 15.088H62.958V15.922C62.878 15.954 62.758 15.982 62.598 16.006C62.442 16.03 62.24 16.042 61.992 16.042C61.532 16.042 61.174 15.98 60.918 15.856C60.666 15.732 60.49 15.554 60.39 15.322C60.294 15.086 60.246 14.802 60.246 14.47V10.72H59.238V9.796H60.282L60.6 7.972H61.53V9.79H62.922V10.72ZM65.8224 14.47V16H64.3404V14.47H65.8224ZM65.8524 7.324L65.5164 13.666H64.6764L64.3224 7.324H65.8524ZM73.5186 16.12C73.1066 16.12 72.7046 16.068 72.3126 15.964C71.9206 15.86 71.5646 15.706 71.2446 15.502C70.9246 15.294 70.6586 15.036 70.4466 14.728C70.2386 14.42 70.1086 14.06 70.0566 13.648H71.3946C71.4626 13.96 71.5966 14.222 71.7966 14.434C72.0006 14.646 72.2506 14.806 72.5466 14.914C72.8426 15.022 73.1646 15.076 73.5126 15.076C73.8966 15.076 74.2406 15.024 74.5446 14.92C74.8526 14.812 75.0966 14.66 75.2766 14.464C75.4566 14.264 75.5466 14.024 75.5466 13.744C75.5466 13.492 75.4846 13.278 75.3606 13.102C75.2406 12.926 75.0686 12.78 74.8446 12.664C74.6246 12.544 74.3586 12.45 74.0466 12.382L72.4026 12.01C71.7586 11.874 71.2506 11.622 70.8786 11.254C70.5106 10.882 70.3246 10.39 70.3206 9.778C70.3166 9.266 70.4506 8.818 70.7226 8.434C70.9986 8.05 71.3746 7.752 71.8506 7.54C72.3266 7.324 72.8686 7.216 73.4766 7.216C74.1846 7.216 74.7786 7.334 75.2586 7.57C75.7426 7.806 76.1086 8.118 76.3566 8.506C76.6046 8.89 76.7306 9.308 76.7346 9.76H75.4206C75.3886 9.392 75.2806 9.1 75.0966 8.884C74.9126 8.668 74.6806 8.514 74.4006 8.422C74.1246 8.326 73.8206 8.278 73.4886 8.278C73.2486 8.278 73.0186 8.308 72.7986 8.368C72.5786 8.428 72.3846 8.516 72.2166 8.632C72.0486 8.748 71.9146 8.892 71.8146 9.064C71.7186 9.232 71.6706 9.426 71.6706 9.646C71.6706 9.942 71.7706 10.182 71.9706 10.366C72.1706 10.55 72.5386 10.708 73.0746 10.84L74.6826 11.206C75.1426 11.302 75.5146 11.444 75.7986 11.632C76.0826 11.816 76.3006 12.026 76.4526 12.262C76.6046 12.498 76.7086 12.744 76.7646 13C76.8206 13.252 76.8486 13.494 76.8486 13.726C76.8486 14.174 76.7146 14.58 76.4466 14.944C76.1786 15.304 75.7966 15.59 75.3006 15.802C74.8046 16.014 74.2106 16.12 73.5186 16.12ZM79.7612 9.796V16H78.5252V9.796H79.7612ZM79.7852 7.33V8.596H78.4952V7.33H79.7852ZM81.6747 16V9.796H82.9047V11.068C83.0087 10.764 83.1527 10.51 83.3367 10.306C83.5247 10.098 83.7427 9.942 83.9907 9.838C84.2387 9.73 84.5007 9.676 84.7767 9.676C84.8607 9.676 84.9407 9.682 85.0167 9.694C85.0927 9.702 85.1527 9.718 85.1967 9.742V10.978C85.1447 10.954 85.0767 10.938 84.9927 10.93C84.9127 10.922 84.8427 10.916 84.7827 10.912C84.5107 10.892 84.2627 10.906 84.0387 10.954C83.8147 11.002 83.6207 11.082 83.4567 11.194C83.2967 11.306 83.1727 11.452 83.0847 11.632C83.0007 11.812 82.9587 12.024 82.9587 12.268V16H81.6747ZM85.349 16V14.452H86.831V16H85.349Z" fill="white"/>
</svg>
