<svg width="22" height="22" viewBox="0 0 22 22" fill="none" xmlns="http://www.w3.org/2000/svg">
<path d="M10.2962 19.7024C5.23765 19.7024 1.11914 15.5356 1.11914 10.4176C1.11914 5.29964 5.23765 1.13281 10.2962 1.13281C15.3548 1.13281 19.4733 5.29964 19.4733 10.4176C19.4733 15.5356 15.3548 19.7024 10.2962 19.7024ZM10.2962 2.49156C5.97181 2.49156 2.46213 6.05149 2.46213 10.4176C2.46213 14.7837 5.97181 18.3436 10.2962 18.3436C14.6207 18.3436 18.1304 14.7837 18.1304 10.4176C18.1304 6.05149 14.6207 2.49156 10.2962 2.49156Z" fill="#FFF9E3"/>
<path d="M19.6962 20.6076C19.5261 20.6076 19.356 20.5442 19.2217 20.4083L17.4311 18.5967C17.1714 18.334 17.1714 17.8992 17.4311 17.6365C17.6907 17.3738 18.1205 17.3738 18.3801 17.6365L20.1708 19.4481C20.4304 19.7108 20.4304 20.1456 20.1708 20.4083C20.0365 20.5442 19.8664 20.6076 19.6962 20.6076Z" fill="#FFF9E3"/>
</svg>
